<?xml version="1.0" standalone="no"?>
<!DOCTYPE svg PUBLIC "-//W3C//DTD SVG 20010904//EN"
 "http://www.w3.org/TR/2001/REC-SVG-20010904/DTD/svg10.dtd">
<svg version="1.0" xmlns="http://www.w3.org/2000/svg"
 width="1280.000000pt" height="1280.000000pt" viewBox="0 0 1280.000000 1280.000000"
 preserveAspectRatio="xMidYMid meet">

<g transform="translate(0.000000,1280.000000) scale(0.100000,-0.100000)"
fill="#000000" stroke="none">
<path d="M6379 8603 c-94 -98 -160 -206 -203 -329 -38 -108 -49 -194 -43 -319
10 -194 83 -379 204 -520 l35 -40 -7 -752 c-7 -746 -7 -753 12 -753 11 0 47
-3 79 -6 l59 -6 -3 756 -3 757 38 43 c21 24 60 80 86 124 172 285 162 658 -24
928 -45 65 -145 164 -167 164 -10 0 -38 -21 -63 -47z"/>
<path d="M5350 7541 c-31 -8 -35 -36 -21 -159 26 -239 161 -476 345 -607 145
-103 287 -153 463 -162 l111 -6 12 44 c16 56 7 163 -21 266 -82 301 -328 538
-630 607 -73 17 -222 26 -259 17z"/>
<path d="M7325 7479 c-182 -28 -355 -119 -486 -257 -119 -124 -185 -251 -224
-427 -20 -93 -17 -231 6 -247 8 -5 60 -7 119 -5 190 8 377 91 531 235 173 162
251 323 272 564 6 70 7 131 3 135 -11 12 -152 13 -221 2z"/>
<path d="M3368 5583 c-9 -2 -21 -16 -26 -31 -6 -15 -36 -94 -67 -177 -31 -82
-72 -189 -90 -236 -40 -102 -159 -424 -169 -456 -7 -23 -6 -23 74 -23 l81 0
16 38 c9 20 23 60 32 87 l16 50 149 0 148 0 29 -85 c16 -47 29 -86 29 -87 0
-2 38 -3 85 -3 51 0 85 4 85 10 0 6 -39 108 -86 228 -47 119 -106 271 -131
337 -24 66 -59 158 -78 205 -18 47 -36 95 -39 108 -8 25 -33 40 -58 35z m82
-520 c16 -50 30 -94 30 -97 0 -3 -45 -6 -101 -6 -92 0 -101 2 -94 18 4 9 27
80 52 157 l46 140 18 -60 c11 -33 32 -101 49 -152z"/>
<path d="M5710 5581 c-63 -9 -136 -47 -182 -94 -108 -111 -156 -345 -109 -529
37 -143 103 -233 208 -284 49 -24 61 -26 150 -22 113 5 159 23 227 92 83 82
126 210 126 372 0 127 -12 193 -50 271 -70 141 -213 217 -370 194z m126 -160
c47 -21 84 -65 111 -131 22 -54 26 -260 6 -326 -22 -70 -72 -135 -121 -157
-128 -56 -235 36 -263 225 -19 132 14 291 74 357 48 52 122 64 193 32z"/>
<path d="M4115 5563 c-196 -71 -295 -226 -295 -463 0 -206 90 -364 239 -421
111 -42 260 -36 376 17 l55 25 0 215 0 214 -125 0 -125 0 0 -70 0 -70 55 0 55
0 0 -104 0 -104 -66 -7 c-98 -10 -157 7 -214 65 -61 60 -83 123 -83 239 0 189
76 309 209 331 57 9 148 -2 169 -21 22 -21 53 -9 70 26 26 55 17 76 -44 109
-71 38 -199 47 -276 19z"/>
<path d="M4765 5573 c-22 -2 -50 -6 -62 -8 l-23 -5 0 -450 0 -450 80 0 80 0 0
195 0 195 23 -1 c60 -3 69 -12 187 -199 l115 -185 79 -3 c44 -2 82 1 87 5 4 4
-25 58 -63 118 -39 61 -94 149 -123 196 l-52 86 46 34 c107 80 139 259 65 371
-55 84 -213 121 -439 101z m262 -160 c39 -18 57 -60 50 -119 -8 -79 -61 -114
-172 -114 l-65 0 0 124 c0 111 2 125 18 128 34 7 138 -4 169 -19z"/>
<path d="M6775 5566 c-191 -60 -303 -249 -293 -496 5 -114 25 -183 77 -260
101 -150 311 -201 511 -123 l75 28 3 215 c1 117 -1 217 -5 220 -5 4 -63 5
-130 2 l-123 -4 0 -64 0 -64 43 0 c72 -1 81 -15 75 -115 -3 -48 -9 -89 -13
-93 -16 -16 -157 -14 -201 3 -131 50 -191 257 -125 440 27 76 66 124 125 154
66 34 136 38 211 13 l60 -21 22 22 c12 12 25 34 28 48 18 75 -205 137 -340 95z"/>
<path d="M7327 5564 c-4 -4 -7 -159 -7 -344 0 -379 3 -396 70 -473 50 -56 120
-87 214 -94 155 -12 261 55 305 194 21 65 21 82 19 393 l-3 325 -70 -1 -70 -2
-5 -328 c-4 -288 -7 -333 -23 -364 -23 -47 -65 -71 -125 -71 -86 -1 -133 34
-151 111 -7 28 -10 162 -8 350 l2 305 -70 3 c-39 1 -74 0 -78 -4z"/>
<path d="M8158 5565 c-4 -4 -7 -209 -8 -456 l0 -449 80 0 80 0 0 450 c0 422
-1 450 -17 450 -10 1 -43 3 -73 6 -30 3 -58 3 -62 -1z"/>
<path d="M8542 5562 c-13 -4 -23 -10 -23 -14 1 -5 1 -206 1 -448 l0 -440 130
0 c71 0 153 5 182 11 118 25 217 100 267 202 39 80 50 123 57 227 8 103 -6
181 -49 268 -37 78 -90 131 -165 168 -55 27 -64 28 -217 31 -88 1 -170 -1
-183 -5z m343 -155 c66 -47 93 -99 104 -202 11 -95 -2 -212 -28 -264 -25 -48
-75 -98 -116 -116 -16 -7 -61 -15 -100 -16 l-70 -4 -3 312 -2 312 42 4 c71 7
141 -4 173 -26z"/>
<path d="M9327 5563 c-4 -3 -7 -206 -7 -449 l0 -444 23 -5 c12 -2 127 -3 255
-2 257 2 252 1 252 68 0 66 -5 68 -200 71 l-175 3 -3 133 -3 132 145 0 c144 0
146 0 162 25 12 19 14 33 7 62 -11 47 -23 50 -190 52 l-122 1 1 104 1 104 179
4 c198 3 198 3 198 71 0 24 -7 44 -20 57 -19 19 -33 20 -258 20 -131 0 -242
-3 -245 -7z"/>
</g>
</svg>
