<?xml version="1.0" standalone="no"?>
<!DOCTYPE svg PUBLIC "-//W3C//DTD SVG 20010904//EN"
 "http://www.w3.org/TR/2001/REC-SVG-20010904/DTD/svg10.dtd">
<svg version="1.0" xmlns="http://www.w3.org/2000/svg"
 width="718.000000pt" height="247.000000pt" viewBox="0 0 718.000000 247.000000"
 preserveAspectRatio="xMidYMid meet">

<g transform="translate(0.000000,247.000000) scale(0.100000,-0.100000)"
fill="#000000" stroke="none">
<path d="M5550 1729 c-87 -17 -150 -81 -166 -169 l-7 -35 37 43 c40 44 66 54
66 24 0 -10 -18 -79 -40 -152 -22 -73 -40 -149 -40 -167 0 -107 128 -168 265
-128 79 23 171 113 205 200 32 85 33 193 1 258 -53 109 -171 155 -321 126z
m129 -118 c42 -29 66 -88 65 -158 -1 -122 -87 -233 -161 -208 -37 14 -40 45
-13 163 11 50 20 124 20 163 l0 71 33 -7 c17 -4 43 -14 56 -24z"/>
<path d="M1922 1710 c-36 -22 -72 -75 -72 -105 1 -17 3 -16 16 8 8 15 22 27
31 27 29 0 9 -76 -43 -159 -81 -129 -124 -217 -130 -265 -8 -58 5 -76 58 -76
57 0 75 13 83 62 13 82 9 79 88 76 l71 -3 9 -38 c13 -55 57 -97 102 -97 47 0
71 13 90 50 19 36 21 80 3 62 -19 -19 -46 -14 -59 10 -7 13 -18 102 -24 198
-13 192 -24 229 -75 255 -41 21 -108 19 -148 -5z m94 -244 l7 -94 -54 -4 c-30
-2 -55 -3 -57 -3 -1 1 11 33 27 71 16 38 35 92 42 119 11 42 13 46 20 26 5
-12 12 -64 15 -115z"/>
<path d="M2474 1706 c-64 -30 -116 -83 -151 -154 -23 -48 -27 -69 -28 -146 0
-52 6 -107 14 -129 16 -47 63 -102 104 -124 33 -16 107 -21 145 -9 21 7 22 5
22 -51 0 -32 4 -64 9 -72 12 -19 74 -6 108 23 l27 24 -18 58 c-25 78 -23 97 8
134 34 41 35 88 0 129 -51 61 -109 26 -122 -75 -7 -57 -8 -59 -39 -62 -45 -4
-68 11 -93 64 -42 86 -13 253 52 298 56 39 94 10 85 -64 l-6 -49 32 6 c51 10
85 31 103 64 28 55 3 114 -63 148 -38 19 -133 13 -189 -13z"/>
<path d="M2980 1721 c-92 -28 -146 -84 -166 -169 -6 -25 -3 -23 30 16 21 23
44 42 52 42 24 0 16 -46 -31 -191 -66 -202 -59 -279 24 -279 54 0 68 16 75 85
9 89 27 175 37 175 4 0 22 -37 39 -82 62 -162 101 -202 174 -178 19 6 41 21
49 33 18 28 29 89 21 111 -6 15 -7 15 -19 0 -18 -25 -63 -10 -83 28 -9 16 -27
46 -39 65 -13 18 -23 35 -23 37 0 2 13 6 29 9 57 12 118 83 122 144 7 105 -64
164 -198 162 -37 0 -79 -4 -93 -8z m128 -98 c51 -44 12 -133 -58 -133 -34 0
-35 4 -24 98 6 49 9 52 34 52 15 0 37 -8 48 -17z"/>
<path d="M3532 1709 c-60 -30 -125 -107 -153 -181 -18 -48 -24 -83 -24 -148 0
-144 54 -220 171 -242 137 -25 254 62 305 225 42 134 14 272 -68 334 -31 24
-47 28 -112 31 -62 2 -84 -1 -119 -19z m126 -94 c48 -34 63 -166 32 -277 -27
-95 -103 -128 -154 -68 -31 38 -40 81 -34 173 9 140 84 222 156 172z"/>
<path d="M4243 1713 c-58 -20 -129 -91 -161 -161 -22 -48 -27 -71 -27 -147 0
-51 6 -107 14 -128 16 -47 63 -102 104 -124 33 -16 107 -21 145 -9 21 7 22 5
22 -51 0 -32 4 -64 9 -72 12 -19 74 -6 108 23 l28 24 -17 54 c-30 94 -30 92 2
133 38 48 40 92 4 134 -52 62 -112 24 -123 -76 -6 -57 -7 -58 -39 -61 -75 -7
-118 67 -110 190 7 110 55 188 114 188 35 0 47 -24 41 -79 l-6 -49 40 9 c59
14 87 36 100 79 23 77 -46 141 -151 139 -30 0 -74 -7 -97 -16z"/>
<path d="M4622 1710 c-38 -24 -72 -75 -72 -110 1 -23 2 -24 14 -7 14 19 41 23
51 7 3 -5 -8 -67 -25 -138 -39 -168 -40 -248 -4 -291 57 -68 171 -21 242 98
l21 34 6 -29 c22 -109 42 -134 103 -134 57 0 103 65 102 144 -1 19 -2 18 -16
-6 -17 -32 -35 -35 -55 -11 -23 26 -16 155 10 195 53 83 74 139 68 186 -3 31
-12 52 -27 64 -29 23 -41 23 -74 -3 -40 -31 -73 -106 -92 -206 -13 -68 -26
-101 -54 -143 -40 -59 -77 -87 -103 -77 -25 9 -21 58 13 192 38 146 39 197 5
230 -29 30 -68 32 -113 5z"/>
<path d="M5205 1708 c-23 -20 -29 -40 -50 -158 -53 -308 -55 -377 -9 -407 23
-15 28 -15 58 -1 l33 16 12 116 c7 64 23 169 37 233 39 188 39 181 19 203 -24
26 -68 25 -100 -2z"/>
<path d="M6082 1704 c-108 -54 -143 -157 -77 -228 l25 -27 -44 -42 c-53 -51
-72 -107 -57 -165 45 -165 324 -133 385 45 25 73 20 78 -33 31 -76 -68 -154
-86 -196 -43 -31 30 -32 56 -2 90 20 23 25 24 53 14 42 -17 82 -4 95 28 22 59
-14 101 -71 82 -17 -6 -34 -9 -37 -5 -3 3 -8 28 -11 55 -4 46 -2 53 26 81 50
50 87 32 80 -40 -3 -37 -2 -40 22 -40 61 0 120 70 106 125 -17 68 -164 89
-264 39z"/>
</g>
</svg>
